<mxfile host="app.diagrams.net" modified="2024-05-14T17:52:09.397Z" agent="Mozilla/5.0 (Windows NT 10.0; Win64; x64) AppleWebKit/537.36 (KHTML, like Gecko) Chrome/124.0.0.0 Safari/537.36" etag="YDUxhreOdnnMQjhmKZv5" version="24.4.0" type="github">
  <diagram id="C5RBs43oDa-KdzZeNtuy" name="Page-1">
    <mxGraphModel dx="1195" dy="643" grid="1" gridSize="10" guides="1" tooltips="1" connect="1" arrows="1" fold="1" page="1" pageScale="1" pageWidth="827" pageHeight="1169" math="0" shadow="0">
      <root>
        <mxCell id="WIyWlLk6GJQsqaUBKTNV-0" />
        <mxCell id="WIyWlLk6GJQsqaUBKTNV-1" parent="WIyWlLk6GJQsqaUBKTNV-0" />
        <mxCell id="uMf7fw4PSQ59kjxWqC5f-0" value="Customer&lt;div&gt;&lt;br&gt;&lt;/div&gt;" style="shape=umlActor;verticalLabelPosition=bottom;verticalAlign=top;html=1;outlineConnect=0;" vertex="1" parent="WIyWlLk6GJQsqaUBKTNV-1">
          <mxGeometry x="228.99" y="80" width="30" height="60" as="geometry" />
        </mxCell>
        <mxCell id="uMf7fw4PSQ59kjxWqC5f-1" value="" style="whiteSpace=wrap;html=1;aspect=fixed;" vertex="1" parent="WIyWlLk6GJQsqaUBKTNV-1">
          <mxGeometry x="194.99" y="240" width="100" height="100" as="geometry" />
        </mxCell>
        <mxCell id="uMf7fw4PSQ59kjxWqC5f-4" value="&lt;font style=&quot;font-size: 14px;&quot;&gt;&lt;b&gt;Shopify&lt;/b&gt;&lt;/font&gt;" style="text;html=1;align=center;verticalAlign=middle;whiteSpace=wrap;rounded=0;" vertex="1" parent="WIyWlLk6GJQsqaUBKTNV-1">
          <mxGeometry x="213.99" y="275" width="60" height="30" as="geometry" />
        </mxCell>
        <mxCell id="uMf7fw4PSQ59kjxWqC5f-6" value="" style="shape=cylinder3;whiteSpace=wrap;html=1;boundedLbl=1;backgroundOutline=1;size=15;" vertex="1" parent="WIyWlLk6GJQsqaUBKTNV-1">
          <mxGeometry x="164.99" y="400" width="160" height="90" as="geometry" />
        </mxCell>
        <mxCell id="uMf7fw4PSQ59kjxWqC5f-7" value="&lt;span style=&quot;font-size: 14px;&quot;&gt;&lt;b&gt;AWS S3&amp;nbsp;&lt;br&gt;Bucket&lt;/b&gt;&lt;/span&gt;" style="text;html=1;align=center;verticalAlign=middle;whiteSpace=wrap;rounded=0;" vertex="1" parent="WIyWlLk6GJQsqaUBKTNV-1">
          <mxGeometry x="214.99" y="440" width="60" height="30" as="geometry" />
        </mxCell>
        <mxCell id="uMf7fw4PSQ59kjxWqC5f-8" value="&lt;font style=&quot;font-size: 14px;&quot;&gt;&lt;b&gt;Upload&lt;/b&gt;&lt;/font&gt;" style="text;html=1;align=center;verticalAlign=middle;whiteSpace=wrap;rounded=0;" vertex="1" parent="WIyWlLk6GJQsqaUBKTNV-1">
          <mxGeometry x="244.99" y="350" width="60" height="30" as="geometry" />
        </mxCell>
        <mxCell id="uMf7fw4PSQ59kjxWqC5f-11" value="&lt;font style=&quot;font-size: 12px;&quot;&gt;Condition&lt;/font&gt;" style="text;html=1;align=center;verticalAlign=middle;whiteSpace=wrap;rounded=0;" vertex="1" parent="WIyWlLk6GJQsqaUBKTNV-1">
          <mxGeometry x="254.99" y="498.13" width="60" height="30" as="geometry" />
        </mxCell>
        <mxCell id="uMf7fw4PSQ59kjxWqC5f-12" value="" style="rhombus;whiteSpace=wrap;html=1;" vertex="1" parent="WIyWlLk6GJQsqaUBKTNV-1">
          <mxGeometry x="169.99" y="543" width="150" height="80" as="geometry" />
        </mxCell>
        <mxCell id="uMf7fw4PSQ59kjxWqC5f-13" value="&lt;font style=&quot;font-size: 14px;&quot;&gt;&lt;b&gt;Success&lt;/b&gt;&lt;/font&gt;" style="text;html=1;align=center;verticalAlign=middle;whiteSpace=wrap;rounded=0;" vertex="1" parent="WIyWlLk6GJQsqaUBKTNV-1">
          <mxGeometry x="213.99" y="568" width="60" height="30" as="geometry" />
        </mxCell>
        <mxCell id="uMf7fw4PSQ59kjxWqC5f-27" value="" style="shape=partialRectangle;whiteSpace=wrap;html=1;bottom=1;right=1;left=1;top=0;fillColor=none;routingCenterX=-0.5;rotation=90;" vertex="1" parent="WIyWlLk6GJQsqaUBKTNV-1">
          <mxGeometry x="-39.999999999999986" y="373.13" width="294.99" height="125" as="geometry" />
        </mxCell>
        <mxCell id="uMf7fw4PSQ59kjxWqC5f-28" value="" style="endArrow=classic;html=1;rounded=0;exitX=0;exitY=0;exitDx=0;exitDy=0;entryX=-0.002;entryY=0.48;entryDx=0;entryDy=0;entryPerimeter=0;" edge="1" parent="WIyWlLk6GJQsqaUBKTNV-1" source="uMf7fw4PSQ59kjxWqC5f-27" target="uMf7fw4PSQ59kjxWqC5f-1">
          <mxGeometry width="50" height="50" relative="1" as="geometry">
            <mxPoint x="84.99000000000001" y="460" as="sourcePoint" />
            <mxPoint x="134.99" y="410" as="targetPoint" />
          </mxGeometry>
        </mxCell>
        <mxCell id="uMf7fw4PSQ59kjxWqC5f-29" value="" style="endArrow=classic;html=1;rounded=0;" edge="1" parent="WIyWlLk6GJQsqaUBKTNV-1">
          <mxGeometry width="50" height="50" relative="1" as="geometry">
            <mxPoint x="243.34000000000003" y="170" as="sourcePoint" />
            <mxPoint x="244.63" y="240" as="targetPoint" />
          </mxGeometry>
        </mxCell>
        <mxCell id="uMf7fw4PSQ59kjxWqC5f-30" value="" style="endArrow=classic;html=1;rounded=0;" edge="1" parent="WIyWlLk6GJQsqaUBKTNV-1">
          <mxGeometry width="50" height="50" relative="1" as="geometry">
            <mxPoint x="244.99" y="340" as="sourcePoint" />
            <mxPoint x="244.81" y="400" as="targetPoint" />
          </mxGeometry>
        </mxCell>
        <mxCell id="uMf7fw4PSQ59kjxWqC5f-31" value="" style="endArrow=classic;html=1;rounded=0;" edge="1" parent="WIyWlLk6GJQsqaUBKTNV-1">
          <mxGeometry width="50" height="50" relative="1" as="geometry">
            <mxPoint x="244.99" y="490" as="sourcePoint" />
            <mxPoint x="244.82" y="543" as="targetPoint" />
          </mxGeometry>
        </mxCell>
        <mxCell id="uMf7fw4PSQ59kjxWqC5f-33" value="" style="endArrow=classic;html=1;rounded=0;" edge="1" parent="WIyWlLk6GJQsqaUBKTNV-1">
          <mxGeometry width="50" height="50" relative="1" as="geometry">
            <mxPoint x="245.16000000000003" y="623" as="sourcePoint" />
            <mxPoint x="244.99" y="676" as="targetPoint" />
          </mxGeometry>
        </mxCell>
        <mxCell id="uMf7fw4PSQ59kjxWqC5f-34" value="&lt;font style=&quot;font-size: 12px;&quot;&gt;Yes&lt;/font&gt;" style="text;html=1;align=center;verticalAlign=middle;whiteSpace=wrap;rounded=0;" vertex="1" parent="WIyWlLk6GJQsqaUBKTNV-1">
          <mxGeometry x="244.99" y="630" width="40" height="30" as="geometry" />
        </mxCell>
        <mxCell id="uMf7fw4PSQ59kjxWqC5f-35" value="&lt;b&gt;No&lt;/b&gt;" style="text;html=1;align=center;verticalAlign=middle;whiteSpace=wrap;rounded=0;" vertex="1" parent="WIyWlLk6GJQsqaUBKTNV-1">
          <mxGeometry x="94.99000000000001" y="560" width="60" height="30" as="geometry" />
        </mxCell>
        <mxCell id="uMf7fw4PSQ59kjxWqC5f-36" value="&lt;font style=&quot;font-size: 12px;&quot;&gt;Error message&lt;/font&gt;" style="text;html=1;align=center;verticalAlign=middle;whiteSpace=wrap;rounded=0;" vertex="1" parent="WIyWlLk6GJQsqaUBKTNV-1">
          <mxGeometry x="74.99000000000001" y="290" width="60" height="30" as="geometry" />
        </mxCell>
        <mxCell id="uMf7fw4PSQ59kjxWqC5f-38" value="" style="rounded=0;whiteSpace=wrap;html=1;" vertex="1" parent="WIyWlLk6GJQsqaUBKTNV-1">
          <mxGeometry x="184.99" y="680" width="120" height="60" as="geometry" />
        </mxCell>
        <mxCell id="uMf7fw4PSQ59kjxWqC5f-39" value="&lt;font style=&quot;font-size: 14px;&quot;&gt;&lt;b&gt;Shopify DB&lt;/b&gt;&lt;/font&gt;" style="text;html=1;align=center;verticalAlign=middle;whiteSpace=wrap;rounded=0;" vertex="1" parent="WIyWlLk6GJQsqaUBKTNV-1">
          <mxGeometry x="213.99" y="695" width="60" height="30" as="geometry" />
        </mxCell>
        <mxCell id="uMf7fw4PSQ59kjxWqC5f-40" value="&lt;div&gt;Admin&lt;/div&gt;" style="shape=umlActor;verticalLabelPosition=bottom;verticalAlign=top;html=1;outlineConnect=0;" vertex="1" parent="WIyWlLk6GJQsqaUBKTNV-1">
          <mxGeometry x="598.99" y="80" width="30" height="60" as="geometry" />
        </mxCell>
        <mxCell id="uMf7fw4PSQ59kjxWqC5f-41" value="" style="whiteSpace=wrap;html=1;aspect=fixed;" vertex="1" parent="WIyWlLk6GJQsqaUBKTNV-1">
          <mxGeometry x="564.99" y="240" width="100" height="100" as="geometry" />
        </mxCell>
        <mxCell id="uMf7fw4PSQ59kjxWqC5f-42" value="&lt;font style=&quot;font-size: 14px;&quot;&gt;&lt;b&gt;Payload&lt;/b&gt;&lt;/font&gt;&lt;div&gt;&lt;font style=&quot;font-size: 14px;&quot;&gt;&lt;b&gt;Dashboard&lt;/b&gt;&lt;/font&gt;&lt;/div&gt;" style="text;html=1;align=center;verticalAlign=middle;whiteSpace=wrap;rounded=0;" vertex="1" parent="WIyWlLk6GJQsqaUBKTNV-1">
          <mxGeometry x="580" y="275" width="63.99" height="30" as="geometry" />
        </mxCell>
        <mxCell id="uMf7fw4PSQ59kjxWqC5f-45" value="&lt;font style=&quot;font-size: 14px;&quot;&gt;&lt;b&gt;Upload&lt;/b&gt;&lt;/font&gt;" style="text;html=1;align=center;verticalAlign=middle;whiteSpace=wrap;rounded=0;" vertex="1" parent="WIyWlLk6GJQsqaUBKTNV-1">
          <mxGeometry x="518.99" y="380" width="60" height="30" as="geometry" />
        </mxCell>
        <mxCell id="uMf7fw4PSQ59kjxWqC5f-52" value="" style="endArrow=classic;html=1;rounded=0;" edge="1" parent="WIyWlLk6GJQsqaUBKTNV-1">
          <mxGeometry width="50" height="50" relative="1" as="geometry">
            <mxPoint x="579.99" y="340" as="sourcePoint" />
            <mxPoint x="580" y="450" as="targetPoint" />
          </mxGeometry>
        </mxCell>
        <mxCell id="uMf7fw4PSQ59kjxWqC5f-61" value="" style="endArrow=classic;html=1;rounded=0;" edge="1" parent="WIyWlLk6GJQsqaUBKTNV-1">
          <mxGeometry width="50" height="50" relative="1" as="geometry">
            <mxPoint x="613.97" y="180" as="sourcePoint" />
            <mxPoint x="613.79" y="240" as="targetPoint" />
          </mxGeometry>
        </mxCell>
        <mxCell id="uMf7fw4PSQ59kjxWqC5f-62" value="" style="endArrow=classic;html=1;rounded=0;" edge="1" parent="WIyWlLk6GJQsqaUBKTNV-1">
          <mxGeometry width="50" height="50" relative="1" as="geometry">
            <mxPoint x="580" y="450" as="sourcePoint" />
            <mxPoint x="326" y="450" as="targetPoint" />
          </mxGeometry>
        </mxCell>
        <mxCell id="uMf7fw4PSQ59kjxWqC5f-63" value="" style="rounded=0;whiteSpace=wrap;html=1;" vertex="1" parent="WIyWlLk6GJQsqaUBKTNV-1">
          <mxGeometry x="553.99" y="680" width="106.01" height="60" as="geometry" />
        </mxCell>
        <mxCell id="uMf7fw4PSQ59kjxWqC5f-64" value="&lt;font style=&quot;font-size: 14px;&quot;&gt;&lt;b&gt;Payload&lt;/b&gt;&lt;/font&gt;&lt;div&gt;&lt;font style=&quot;font-size: 14px;&quot;&gt;&lt;b&gt;DB&lt;/b&gt;&lt;/font&gt;&lt;/div&gt;" style="text;html=1;align=center;verticalAlign=middle;whiteSpace=wrap;rounded=0;" vertex="1" parent="WIyWlLk6GJQsqaUBKTNV-1">
          <mxGeometry x="577" y="695" width="60" height="30" as="geometry" />
        </mxCell>
        <mxCell id="uMf7fw4PSQ59kjxWqC5f-65" value="" style="endArrow=classic;html=1;rounded=0;" edge="1" parent="WIyWlLk6GJQsqaUBKTNV-1">
          <mxGeometry width="50" height="50" relative="1" as="geometry">
            <mxPoint x="314.99" y="700" as="sourcePoint" />
            <mxPoint x="540" y="700" as="targetPoint" />
          </mxGeometry>
        </mxCell>
        <mxCell id="uMf7fw4PSQ59kjxWqC5f-66" value="" style="endArrow=classic;html=1;rounded=0;" edge="1" parent="WIyWlLk6GJQsqaUBKTNV-1">
          <mxGeometry width="50" height="50" relative="1" as="geometry">
            <mxPoint x="540" y="721" as="sourcePoint" />
            <mxPoint x="315" y="721" as="targetPoint" />
          </mxGeometry>
        </mxCell>
        <mxCell id="uMf7fw4PSQ59kjxWqC5f-67" value="&lt;font style=&quot;font-size: 12px;&quot;&gt;Sync&lt;/font&gt;" style="text;html=1;align=center;verticalAlign=middle;whiteSpace=wrap;rounded=0;" vertex="1" parent="WIyWlLk6GJQsqaUBKTNV-1">
          <mxGeometry x="390" y="670" width="60" height="30" as="geometry" />
        </mxCell>
        <mxCell id="uMf7fw4PSQ59kjxWqC5f-68" value="" style="shape=partialRectangle;whiteSpace=wrap;html=1;bottom=1;right=1;left=1;top=0;fillColor=none;routingCenterX=-0.5;rotation=-90;" vertex="1" parent="WIyWlLk6GJQsqaUBKTNV-1">
          <mxGeometry x="483.14" y="477.74" width="418.81" height="57.12" as="geometry" />
        </mxCell>
        <mxCell id="uMf7fw4PSQ59kjxWqC5f-69" value="" style="edgeStyle=elbowEdgeStyle;elbow=horizontal;endArrow=classic;html=1;curved=0;rounded=0;endSize=8;startSize=8;" edge="1" parent="WIyWlLk6GJQsqaUBKTNV-1">
          <mxGeometry width="50" height="50" relative="1" as="geometry">
            <mxPoint x="324.99" y="430" as="sourcePoint" />
            <mxPoint x="560" y="310" as="targetPoint" />
            <Array as="points">
              <mxPoint x="484.99" y="390" />
            </Array>
          </mxGeometry>
        </mxCell>
        <mxCell id="uMf7fw4PSQ59kjxWqC5f-71" value="&lt;table border=&quot;1&quot; width=&quot;100%&quot; height=&quot;100%&quot; cellpadding=&quot;4&quot; style=&quot;width:100%;height:100%;border-collapse:collapse;&quot;&gt;&lt;tbody&gt;&lt;tr&gt;&lt;th align=&quot;center&quot;&gt;Media&amp;nbsp;&lt;/th&gt;&lt;/tr&gt;&lt;tr&gt;&lt;td align=&quot;center&quot;&gt;Section 1.1&lt;br&gt;Section 1.2&lt;br&gt;Section 1.3&lt;/td&gt;&lt;/tr&gt;&lt;tr&gt;&lt;td align=&quot;center&quot;&gt;&lt;br&gt;&lt;/td&gt;&lt;/tr&gt;&lt;/tbody&gt;&lt;/table&gt;" style="text;html=1;whiteSpace=wrap;strokeColor=none;fillColor=none;overflow=fill;" vertex="1" parent="WIyWlLk6GJQsqaUBKTNV-1">
          <mxGeometry x="518.99" y="460" width="180" height="150" as="geometry" />
        </mxCell>
        <mxCell id="uMf7fw4PSQ59kjxWqC5f-72" value="" style="endArrow=classic;html=1;rounded=0;entryX=0.582;entryY=0;entryDx=0;entryDy=0;entryPerimeter=0;" edge="1" parent="WIyWlLk6GJQsqaUBKTNV-1" target="uMf7fw4PSQ59kjxWqC5f-71">
          <mxGeometry width="50" height="50" relative="1" as="geometry">
            <mxPoint x="623.97" y="343" as="sourcePoint" />
            <mxPoint x="623.79" y="403" as="targetPoint" />
          </mxGeometry>
        </mxCell>
      </root>
    </mxGraphModel>
  </diagram>
</mxfile>
